<svg xmlns="http://www.w3.org/2000/svg" width="49.18" height="43.055" viewBox="0 0 49.18 43.055"><g stroke="#3B3735" stroke-width="2" stroke-linecap="round" stroke-linejoin="round" stroke-miterlimit="10" fill="none"><path d="M23.82 31.673l-22.339-14.398c-.641-.413-.641-1.268 0-1.681l22.339-14.399c.404-.26.949-.26 1.353 0l22.339 14.398c.641.413.641 1.268 0 1.681l-22.338 14.399c-.405.26-.949.26-1.354 0z"/><path d="M24.49 32.006l-15.601-9.978v9.431c0 .316.167.613.451.801l14.487 9.599c.394.261.932.261 1.326 0l14.487-9.599c.284-.188.451-.485.451-.801v-9.431l-15.601 9.978z"/><path d="M48.18 29.251v-13"/></g></svg>