<svg xmlns="http://www.w3.org/2000/svg" width="48" height="46.466" viewBox="0 0 48 46.466"><g stroke="#3B3735" stroke-width="2" stroke-linecap="round" stroke-linejoin="round" stroke-miterlimit="10" fill="none"><path d="M29.359 35.361l6.641-23.535v29.64"/><path d="M44.401 41.646l-8.401-29.82v29.64"/></g><path stroke="#3B3735" stroke-width="2" stroke-linecap="round" stroke-linejoin="round" stroke-miterlimit="10" fill="none" d="M43.019 37.211l-12.71-5.385 9.053-6"/><path stroke="#3B3735" stroke-width="2" stroke-linecap="round" stroke-linejoin="round" stroke-miterlimit="10" d="M23.176 11c-1.764 0-1.764-2-3.529-2s-1.765 2-3.529 2c-1.768 0-1.768-2-3.535-2s-1.768 2-3.535 2" fill="none"/><path stroke="#3B3735" stroke-width="2" stroke-linecap="round" stroke-linejoin="round" stroke-miterlimit="10" d="M35.176 3c-1.764 0-1.764-2-3.529-2s-1.765 2-3.529 2c-1.768 0-1.768-2-3.535-2-1.768 0-1.768 2-3.535 2" fill="none"/><path stroke="#3B3735" stroke-width="2" stroke-linecap="round" stroke-linejoin="round" stroke-miterlimit="10" fill="none" d="M7 15.466h11v12h-11z"/><path stroke="#3B3735" stroke-width="2" stroke-linecap="round" stroke-linejoin="round" stroke-miterlimit="10" fill="none" d="M7 15.466h11v5h-11z"/><path stroke="#3B3735" stroke-width="2" stroke-linecap="round" stroke-linejoin="round" stroke-miterlimit="10" fill="none" d="M18 20.466h9v3h-9z"/><path stroke="#3B3735" stroke-width="2" stroke-linecap="round" stroke-linejoin="round" stroke-miterlimit="10" fill="none" d="M6.795 27.466h10.991l4.885 14h-20.761z"/><path stroke="#3B3735" stroke-width="2" stroke-linecap="round" stroke-linejoin="round" stroke-miterlimit="10" fill="none" d="M18 27.917v-7.451h9v9h-8.4z"/><path stroke="#3B3735" stroke-width="2" stroke-linecap="round" stroke-linejoin="round" stroke-miterlimit="10" fill="none" d="M27.333 29.466l4.062 12h-8.724l-4.071-12z"/><path stroke="#3B3735" stroke-width="2" stroke-linecap="round" stroke-linejoin="round" stroke-miterlimit="10" fill="none" d="M1 41.466h46v4h-46z"/></svg>