<svg xmlns="http://www.w3.org/2000/svg" width="45.964" height="46.085" viewBox="0 0 45.964 46.085"><g stroke="#000" stroke-width="2" stroke-linecap="round" stroke-linejoin="round" stroke-miterlimit="10" fill="none"><path d="M38.937 11.961c5.879 8.178 5.141 19.642-2.212 26.995-8.173 8.173-21.423 8.173-29.596 0s-8.173-21.423 0-29.596c7.151-7.151 18.19-8.045 26.313-2.682"/><circle cx="21.928" cy="24.158" r="13.975"/><circle cx="21.928" cy="24.158" r="6.871"/><path d="M21.658 24.293l11.129-11.129"/><path d="M38.228 12.669l-4.699-.248-.412-4.864 6.263-6.263c.622-.622 1.686-.196 1.707.683l.053 2.225 2.933.323c.834.092 1.191 1.108.598 1.701l-6.443 6.443z"/></g></svg>